<svg id="SvgjsSvg628641" width="162" height="163" xmlns="http://www.w3.org/2000/svg" version="1.1" xmlns:xlink="http://www.w3.org/1999/xlink" xmlns:svgjs="http://svgjs.com/svgjs" viewBox="219 2578 162 163"><defs id="SvgjsDefs628642"></defs><svg id="SvgjsSvg628643" width="161" height="161" xmlns="http://www.w3.org/2000/svg" version="1.1" xmlns:xlink="http://www.w3.org/1999/xlink" xmlns:svgjs="http://svgjs.com/svgjs" viewBox="0 0 161 161.00006103515625" fill="#dfe8ed" opacity="1" x="219" y="2579"><defs id="SvgjsDefs628644"></defs><svg version="1.1" xmlns="http://www.w3.org/2000/svg" xmlns:xlink="http://www.w3.org/1999/xlink" width="161" height="161" viewBox="1.99993 1.99927 160 160"><g><path fill="#dfe8ed" stroke="none" paint-order="stroke fill markers" fill-rule="evenodd" d=" M 81.99988555908203 1.9992704391479492 C 126.18269157409668 1.9992704391479492 161.9999237060547 37.816545486450195 161.9999237060547 81.99929904937744 C 161.9999237060547 126.18205261230469 126.18269157409668 161.99932765960693 81.99988555908203 161.99932765960693 C 37.81716537475586 161.99932765960693 1.9999332427978516 126.18205261230469 1.9999332427978516 81.99929904937744 C 1.9999332427978516 37.816545486450195 37.81716537475586 1.9992704391479492 81.99988555908203 1.9992704391479492 Z M 81.99988555908203 15.00203800201416 C 119.0015811920166 15.00203800201416 148.99726104736328 44.997918128967285 148.99726104736328 81.99929904937744 C 148.99726104736328 119.00104713439941 119.0015811920166 148.99656009674072 81.99988555908203 148.99656009674072 C 44.99827575683594 148.99656009674072 15.002510070800781 119.00104713439941 15.002510070800781 81.99929904937744 C 15.002510070800781 44.997918128967285 44.99827575683594 15.00203800201416 81.99988555908203 15.00203800201416 Z"></path></g></svg></svg><svg id="SvgjsSvg628647" width="139" height="163" xmlns="http://www.w3.org/2000/svg" version="1.1" xmlns:xlink="http://www.w3.org/1999/xlink" xmlns:svgjs="http://svgjs.com/svgjs" viewBox="0 8.79534912109375 139.000244140625 145.40911865234375" fill="#30bae7" opacity="1" x="242" y="2578"><defs id="SvgjsDefs628648"></defs><svg version="1.1" xmlns="http://www.w3.org/2000/svg" xmlns:xlink="http://www.w3.org/1999/xlink" width="139" height="163" viewBox="25.6146 1.33277 168.032 175.78"><g><path fill="#30bae7" stroke="none" paint-order="stroke fill markers" fill-rule="evenodd" d=" M 109.99988555908203 1.3327713012695312 C 109.99988555908203 1.3327713012695312 109.99988555908203 32.499539375305176 109.99988555908203 32.499539375305176 C 109.99988555908203 32.499539375305176 216.16661071777344 73.66603565216064 150.58320999145508 137.91580390930176 C 122.84848213195801 165.08708667755127 75.68434715270996 156.9639368057251 57.83310890197754 117.86567878723145 C 36.91582679748535 72.0516128540039 77.6353645324707 44.218332290649414 77.6353645324707 44.218332290649414 C 77.6353645324707 44.218332290649414 59.499855041503906 16.791135787963867 59.499855041503906 16.791135787963867 C 59.499855041503906 16.791135787963867 1.5282630920410156 67.75284957885742 37.23691940307617 137.4311466217041 C 60.832204818725586 183.472487449646 116.74145698547363 181.14025783538818 142.99989700317383 171.24921035766602 C 201.68268203735352 149.14516639709473 202.66655921936035 79.66623973846436 179.66659545898438 45.666062355041504 C 156.66654586791992 11.666252136230469 109.99988555908203 1.3327713012695312 109.99988555908203 1.3327713012695312 Z"></path></g></svg></svg></svg>