<svg id="SvgjsSvg624604" width="162" height="163" xmlns="http://www.w3.org/2000/svg" version="1.1" xmlns:xlink="http://www.w3.org/1999/xlink" xmlns:svgjs="http://svgjs.com/svgjs" viewBox="1059 2578 162 163"><defs id="SvgjsDefs624605"></defs><svg id="SvgjsSvg624606" width="161" height="161" xmlns="http://www.w3.org/2000/svg" version="1.1" xmlns:xlink="http://www.w3.org/1999/xlink" xmlns:svgjs="http://svgjs.com/svgjs" viewBox="0 0 161 161.00006103515625" fill="#dfe8ed" opacity="1" x="1059" y="2579"><defs id="SvgjsDefs624607"></defs><svg version="1.1" xmlns="http://www.w3.org/2000/svg" xmlns:xlink="http://www.w3.org/1999/xlink" width="161" height="161" viewBox="1.9999 1.99927 160 160"><g><path fill="#dfe8ed" stroke="none" paint-order="stroke fill markers" fill-rule="evenodd" d=" M 81.99994277954102 1.9992704391479492 C 126.18266296386719 1.9992704391479492 161.9998950958252 37.816545486450195 161.9998950958252 81.99929904937744 C 161.9998950958252 126.18205261230469 126.18266296386719 161.99932765960693 81.99994277954102 161.99932765960693 C 37.81713676452637 161.99932765960693 1.9999046325683594 126.18205261230469 1.9999046325683594 81.99929904937744 C 1.9999046325683594 37.816545486450195 37.81713676452637 1.9992704391479492 81.99994277954102 1.9992704391479492 Z M 81.99994277954102 15.00203800201416 C 119.00155258178711 15.00203800201416 148.99731826782227 44.997918128967285 148.99731826782227 81.99929904937744 C 148.99731826782227 119.00104713439941 119.00155258178711 148.99656009674072 81.99994277954102 148.99656009674072 C 44.998247146606445 148.99656009674072 15.002567291259766 119.00104713439941 15.002567291259766 81.99929904937744 C 15.002567291259766 44.997918128967285 44.998247146606445 15.00203800201416 81.99994277954102 15.00203800201416 Z"></path></g></svg></svg><svg id="SvgjsSvg624610" width="157" height="163" xmlns="http://www.w3.org/2000/svg" version="1.1" xmlns:xlink="http://www.w3.org/1999/xlink" xmlns:svgjs="http://svgjs.com/svgjs" viewBox="0.877197265625 0 155.24517822265625 163.0003662109375" fill="#eb7d4b" opacity="1" x="1064" y="2578"><defs id="SvgjsDefs624611"></defs><svg version="1.1" xmlns="http://www.w3.org/2000/svg" xmlns:xlink="http://www.w3.org/1999/xlink" width="157" height="163" viewBox="6.99329 1.33277 167.111 175.458"><g><path fill="#eb7d4b" stroke="none" paint-order="stroke fill markers" fill-rule="evenodd" d=" M 89.99994277954102 1.3327713012695312 C 89.99994277954102 1.3327713012695312 89.99994277954102 32.499539375305176 89.99994277954102 32.499539375305176 C 89.99994277954102 32.499539375305176 194.55013275146484 101.0018081665039 124.89578247070312 138.5722942352295 C 22.2216796875 193.9528341293335 37.32281684875488 61.68729019165039 37.32281684875488 61.68729019165039 C 37.32281684875488 61.68729019165039 13.791646957397461 47.36419868469238 13.791646957397461 47.36419868469238 C 13.791646957397461 47.36419868469238 1.1735057830810547 85.39621067047119 10.318422317504883 119.48744487762451 C 20.406360626220703 157.0939130783081 55.22186279296875 190.2984447479248 122.99995422363281 171.24921035766602 C 183.36871147155762 154.28253364562988 182.66661643981934 79.66623973846436 159.66656684875488 45.666062355041504 C 136.6666030883789 11.666252136230469 89.99994277954102 1.3327713012695312 89.99994277954102 1.3327713012695312 Z"></path></g></svg></svg></svg>