<svg id="SvgjsSvg619167" width="162" height="163" xmlns="http://www.w3.org/2000/svg" version="1.1" xmlns:xlink="http://www.w3.org/1999/xlink" xmlns:svgjs="http://svgjs.com/svgjs" viewBox="778 2578 162 163"><defs id="SvgjsDefs619168"></defs><svg id="SvgjsSvg619169" width="161" height="161" xmlns="http://www.w3.org/2000/svg" version="1.1" xmlns:xlink="http://www.w3.org/1999/xlink" xmlns:svgjs="http://svgjs.com/svgjs" viewBox="0 0 161 161.00006103515625" fill="#dfe8ed" opacity="1" x="778" y="2579"><defs id="SvgjsDefs619170"></defs><svg version="1.1" xmlns="http://www.w3.org/2000/svg" xmlns:xlink="http://www.w3.org/1999/xlink" width="161" height="161" viewBox="1.99993 1.99927 160 160"><g><path fill="#dfe8ed" stroke="none" paint-order="stroke fill markers" fill-rule="evenodd" d=" M 81.99996757507324 1.9992704391479492 C 126.18268775939941 1.9992704391479492 161.99991989135742 37.816545486450195 161.99991989135742 81.99929904937744 C 161.99991989135742 126.18205261230469 126.18268775939941 161.99932765960693 81.99996757507324 161.99932765960693 C 37.817161560058594 161.99932765960693 1.999929428100586 126.18205261230469 1.999929428100586 81.99929904937744 C 1.999929428100586 37.816545486450195 37.817161560058594 1.9992704391479492 81.99996757507324 1.9992704391479492 Z M 81.99996757507324 15.00203800201416 C 119.00157737731934 15.00203800201416 148.9973430633545 44.997918128967285 148.9973430633545 81.99929904937744 C 148.9973430633545 119.00104713439941 119.00157737731934 148.99656009674072 81.99996757507324 148.99656009674072 C 44.99835777282715 148.99656009674072 15.002592086791992 119.00104713439941 15.002592086791992 81.99929904937744 C 15.002592086791992 44.997918128967285 44.99835777282715 15.00203800201416 81.99996757507324 15.00203800201416 Z"></path></g></svg></svg><svg id="SvgjsSvg619173" width="160" height="163" xmlns="http://www.w3.org/2000/svg" version="1.1" xmlns:xlink="http://www.w3.org/1999/xlink" xmlns:svgjs="http://svgjs.com/svgjs" viewBox="5.51171875 0 148.9766845703125 163.0001220703125" fill="#15c7a8" opacity="1" x="780" y="2578"><defs id="SvgjsDefs619174"></defs><svg version="1.1" xmlns="http://www.w3.org/2000/svg" xmlns:xlink="http://www.w3.org/1999/xlink" width="160" height="163" viewBox="1.6666 1.33277 161.019 176.176"><g><path fill="#15c7a8" stroke="none" paint-order="stroke fill markers" fill-rule="evenodd" d=" M 78.99996757507324 1.3327713012695312 C 78.99996757507324 1.3327713012695312 78.99996757507324 32.499539375305176 78.99996757507324 32.499539375305176 C 78.99996757507324 32.499539375305176 185.16660690307617 73.66603565216064 119.58329200744629 137.91580390930176 C 69.11982536315918 187.35378456115723 21.69785499572754 117.12437343597412 21.69785499572754 117.12437343597412 C 21.69785499572754 117.12437343597412 1.6666030883789062 128.0831356048584 1.6666030883789062 128.0831356048584 C 1.6666030883789062 128.0831356048584 38.24850082397461 198.47299766540527 111.99997901916504 171.24921035766602 C 170.82773208618164 149.53436088562012 171.66664123535156 79.66623973846436 148.6665916442871 45.666062355041504 C 125.66662788391113 11.666252136230469 78.99996757507324 1.3327713012695312 78.99996757507324 1.3327713012695312 Z"></path></g></svg></svg></svg>